<svg width="1026" height="953" viewBox="0 0 1026 953" fill="none" xmlns="http://www.w3.org/2000/svg">
<g opacity="0.2">
<path fill-rule="evenodd" clip-rule="evenodd" d="M539.659 645.303C509.968 649.029 474.385 662.064 446.043 652.537C417.701 643.01 381.412 628.673 360.003 607.791C338.594 586.909 331.163 545.576 320.935 517.471C310.708 489.367 310.78 468.265 313.757 438.506C316.735 408.747 329.325 372.504 344.918 346.984C360.511 321.464 385.263 307.403 410.383 291.176C435.503 274.95 464.2 264.973 493.873 261.255C523.545 257.536 545.108 247.377 573.455 256.902C601.802 266.427 625.315 275.931 646.722 296.813C668.13 317.696 691.685 351.065 701.912 379.17C712.139 407.275 702.354 430.926 699.38 460.682C696.406 490.437 697.083 518.944 681.476 544.479C665.869 570.013 625.748 619.268 600.681 635.44C575.613 651.612 569.35 641.577 539.659 645.303H539.659Z" stroke="white" stroke-width="2"/>
<path fill-rule="evenodd" clip-rule="evenodd" d="M469.643 686.303C439.952 690.029 404.369 703.064 376.027 693.537C347.685 684.01 311.396 669.673 289.987 648.791C268.579 627.909 261.147 586.576 250.92 558.471C240.692 530.367 240.764 509.265 243.742 479.506C246.719 449.747 259.31 413.504 274.903 387.984C290.496 362.464 315.247 348.403 340.368 332.176C365.488 315.95 394.185 305.973 423.857 302.255C453.529 298.536 475.092 288.377 503.439 297.902C531.786 307.427 555.299 316.931 576.707 337.813C598.114 358.696 621.669 392.065 631.896 420.17C642.123 448.275 632.338 471.926 629.364 501.682C626.391 531.437 627.067 559.944 611.46 585.479C595.853 611.013 555.732 660.268 530.665 676.44C505.598 692.612 499.334 682.577 469.643 686.303H469.643Z" stroke="white" stroke-width="2"/>
<path fill-rule="evenodd" clip-rule="evenodd" d="M615.987 651.985C585.1 667.827 551.484 696.155 516.811 697.016C482.138 697.877 436.894 696.648 405.273 682.381C373.653 668.113 349.155 626.007 326.858 599.43C304.561 572.853 296.269 549.823 287.709 516.203C279.149 482.582 278.496 438.08 285.369 404.075C292.243 370.07 313.645 344.922 334.59 317.267C355.536 289.612 382.859 267.35 413.728 251.523C444.596 235.695 464.071 216.065 498.749 215.2C533.427 214.336 562.827 215.365 594.446 229.634C626.066 243.902 664.979 270.929 687.276 297.507C709.573 324.085 708.289 353.749 716.851 387.363C725.414 420.978 737.46 451.783 730.577 485.81C723.694 519.836 699.5 589.446 678.59 617.021C657.681 644.595 646.873 636.142 615.987 651.985Z" stroke="white" stroke-width="2"/>
<path fill-rule="evenodd" clip-rule="evenodd" d="M701.838 628.982C674.455 658.506 649.05 702.723 611.596 717.42C574.142 732.116 524.337 748.73 484.209 745.724C444.082 742.718 400.675 706.541 365.827 686.419C330.98 666.296 312.805 644.482 290.137 611.231C267.47 577.98 249.104 529.73 243.106 489.936C237.109 450.141 250.462 414.236 262.323 375.78C274.184 337.324 295.136 302.216 322.506 272.715C349.875 243.214 363.317 214.089 400.774 199.387C438.231 184.684 470.687 174.14 510.814 177.147C550.94 180.154 604.079 194.175 638.927 214.298C673.775 234.422 684.143 267.267 706.811 300.51C729.479 333.754 754.83 362.554 760.826 402.375C766.821 442.197 768.062 527.674 756.209 566.028C744.356 604.383 729.221 599.457 701.838 628.982H701.838Z" stroke="white" stroke-width="2"/>
<path fill-rule="evenodd" clip-rule="evenodd" d="M786.294 569.842C768.158 612.891 758.005 671.17 723.009 702.051C688.013 732.932 640.313 770.804 595.38 783.45C550.447 796.095 488.781 773.884 442.813 765.777C396.845 757.67 368.38 741.104 330.481 713.853C292.582 686.602 253.421 641.295 231.098 600.297C208.774 559.299 209.087 514.862 206.76 468.237C204.433 421.613 213.345 375.03 231.477 332.012C249.608 288.995 252.705 251.914 287.703 221.025C322.701 190.135 353.897 165.764 398.829 153.12C443.762 140.476 507.247 134.673 553.216 142.782C599.184 150.891 623.515 182.578 661.412 209.821C699.309 237.064 738.367 258.397 760.7 299.425C783.032 340.454 818.293 433.136 820.587 479.647C822.882 526.158 804.431 526.794 786.294 569.842Z" stroke="white" stroke-width="2"/>
<path fill-rule="evenodd" clip-rule="evenodd" d="M854.895 471.865C852.203 525.987 864.256 593.542 838.358 641.09C812.461 688.637 775.49 748.846 731.528 780.46C687.565 812.074 611.535 812.331 558.212 821.734C504.889 831.137 467.289 824.373 415.167 809.706C363.045 795.04 302.386 761.192 261.788 725.36C221.191 689.528 203.904 640.966 182.872 591.066C161.84 541.166 153.075 486.853 155.774 432.768C158.473 378.683 147.14 337.034 173.035 289.476C198.931 241.919 223.268 202.975 267.23 171.363C311.193 139.752 378.093 108.236 431.417 98.8351C484.742 89.4338 523.834 114.32 575.95 128.979C628.066 143.638 679.104 151.394 719.723 187.255C760.342 223.117 835.544 310.152 856.496 359.941C877.448 409.729 857.588 417.744 854.895 471.865V471.865Z" stroke="white" stroke-width="2"/>
<path fill-rule="evenodd" clip-rule="evenodd" d="M890.807 337.846C909.342 397.909 949.279 466.765 939.912 528.87C930.545 590.975 914.129 671.275 878.749 723.179C843.369 775.083 760.595 805.532 706.201 836.94C651.806 868.347 608.137 875.894 545.504 880.589C482.871 885.283 403.322 872.456 344.855 849.507C286.388 826.557 248.28 780.482 205.559 734.434C162.838 688.386 131.738 632.66 113.225 572.634C94.7116 512.608 65.8361 471.706 75.1974 409.591C84.5588 347.476 95.6382 295.369 131.019 243.467C166.4 191.565 226.822 130.667 281.218 99.2599C335.615 67.8534 388.099 79.4694 450.723 74.7687C513.347 70.068 572.058 58.2707 630.56 81.2442C689.063 104.218 805.563 169.251 848.152 215.209C890.742 261.167 872.273 277.784 890.807 337.846V337.846Z" stroke="white" stroke-width="2"/>
<path fill-rule="evenodd" clip-rule="evenodd" d="M876.788 177.51C920.818 235.627 991.665 294.836 1006.09 366.25C1020.52 437.664 1034.48 531.708 1016.5 602.324C998.528 672.941 920.379 738.975 873.546 794.794C826.713 850.613 782.106 876.167 715.695 906.136C649.285 936.106 557.484 953.688 484.649 951.872C411.813 950.055 351.996 914.952 287.161 881.709C222.327 848.467 166.32 800.062 122.328 741.978C78.3358 683.893 30.6344 650.765 16.198 579.342C1.76167 507.92 -6.83193 446.725 11.1455 376.11C29.1229 305.496 70.8274 215.139 117.663 159.321C164.499 103.502 226.317 95.3387 292.715 65.3661C359.113 35.3935 418.431 -0.76217 491.314 1.06667C564.198 2.89551 716.987 27.5578 781.642 60.755C846.298 93.9522 832.757 119.394 876.788 177.51L876.788 177.51Z" stroke="white" stroke-width="2"/>
</g>
</svg>
