<svg width="24" height="24" viewBox="0 0 24 24" fill="none" xmlns="http://www.w3.org/2000/svg">
<path fill-rule="evenodd" clip-rule="evenodd" d="M15.125 0L14.7812 0.0935065C14.7812 0.0935065 13.8789 0.288312 12.9688 0.841558C12.0586 1.39481 11 2.45844 11 4.05195C11 5.64545 12.0586 6.70909 12.9688 7.26234V7.26234C13.3992 7.52468 13.6699 7.99053 13.5451 8.4789C13.4625 8.80227 13.3822 9.1796 13.3165 9.60718C13.1706 10.5565 10.4605 12.0312 9.5 12.0312V12.0312C8.77734 12.0312 8.11719 12.261 7.375 12.561C6.63281 12.861 5.84766 13.2662 5.125 13.6519C3.68359 14.4195 2.46875 15.1792 2.46875 15.1792V15.1792C2.17799 15.3532 2 15.6672 2 16.006V21.0026C2 21.3878 2.21782 21.7398 2.5625 21.9117V21.9117C2.5625 21.9117 6.76172 24 12 24C17.2315 24 21.4266 21.9171 21.4375 21.9117C21.4378 21.9115 21.4377 21.9116 21.438 21.9114V21.9114C21.7798 21.741 22 21.3898 22 21.0078V21.0078C22 16.0208 21.4414 11.6883 20.7812 8.47792C20.4531 6.87273 20.1172 5.55974 19.7812 4.55065C19.4453 3.54156 19.25 2.94935 18.75 2.4C18.1758 1.76493 17.3672 1.24675 16.6875 0.841558C16.0078 0.436364 15.4375 0.155844 15.4375 0.155844L15.125 0ZM14.9276 2C15.1194 2.09812 15.2877 2.15306 15.7104 2.40816C16.3209 2.77316 17.0176 3.28336 17.2759 3.56986C17.1937 3.47959 17.5969 4.13108 17.9022 5.04553C18.2074 5.95997 18.5558 7.23155 18.8728 8.78179C19.4755 11.7253 19.9491 15.7402 20 20.3046C19.2407 20.6499 16.1761 22 12.0157 22C7.82779 22 4.7319 20.6381 4 20.3046V16.5369C4.32485 16.3328 4.95499 15.9403 6.06654 15.3438C6.75147 14.9788 7.49119 14.6334 8.13307 14.3705C8.77495 14.1075 9.35421 13.9623 9.51076 13.9623C10.7828 13.9623 11.8082 14.9082 11.9843 16.1287V16.1287C12.0563 16.6157 12.4742 16.9765 12.9665 16.9765H14.74C15.4379 16.9765 15.9218 16.2807 15.6791 15.6264V15.6264C14.2114 11.5879 15.9296 7.30612 15.9296 7.30612L16.3992 6.20722L15.2407 5.95604C15.2407 5.95604 14.6419 5.81476 14.0509 5.45369C13.4599 5.09262 13.0176 4.66091 13.0176 3.91523C13.0176 3.16955 13.4599 2.73783 14.0509 2.37677C14.4853 2.10989 14.7241 2.05887 14.9276 2Z" fill="black"/>
</svg>
