<svg width="24" height="24" viewBox="0 0 24 24" fill="none" xmlns="http://www.w3.org/2000/svg">
<path fill-rule="evenodd" clip-rule="evenodd" d="M8.05137 0.683799C8.22601 0.159856 8.79233 -0.123304 9.31628 0.0513439C9.84022 0.225992 10.1234 0.792312 9.94873 1.31625C9.21968 3.5034 7.50343 5.21966 5.31628 5.94871L5.12312 6.01898C3.79017 6.54542 2.8654 7.78888 2.75457 9.22969L1.9971 19.0767C1.95474 19.6274 1.47401 20.0394 0.923352 19.9971C0.372694 19.9547 -0.0393642 19.474 0.00299409 18.9233L0.760459 9.07629C0.938284 6.76456 2.48424 4.78454 4.68382 4.05134L4.9197 3.96651C6.39673 3.39575 7.54788 2.19424 8.05137 0.683799ZM14.684 0.0513439C15.208 -0.123304 15.7743 0.159856 15.949 0.683799C16.4524 2.19424 17.6036 3.39575 19.0806 3.96651L19.3165 4.05134C21.5161 4.78454 23.062 6.76456 23.2399 9.07629L23.9973 18.9233C24.0397 19.474 23.6276 19.9547 23.077 19.9971C22.5263 20.0394 22.0456 19.6274 22.0032 19.0767L21.2458 9.22969C21.1349 7.78888 20.2102 6.54542 18.8772 6.01898L18.684 5.94871C16.4969 5.21966 14.7806 3.5034 14.0516 1.31625C13.8769 0.792312 14.1601 0.225992 14.684 0.0513439ZM5.89698 12.5532C5.6502 12.0591 5.04961 11.8586 4.55553 12.1054C4.06145 12.3522 3.86097 12.9528 4.10775 13.4469C4.54043 14.3131 4.89934 15.3397 5.1872 16.4923C5.54147 17.9109 5.77081 19.4414 5.89836 20.9736C5.94309 21.5109 5.97182 22.0094 5.98774 22.4556L5.99267 22.6048L6.00027 23C6.00027 23.5523 6.44799 24 7.00027 24C7.55256 24 8.00027 23.5523 8.00027 23L7.99839 22.816L7.98647 22.3843C7.96946 21.9076 7.93893 21.3778 7.89147 20.8077C7.75562 19.1758 7.51085 17.5423 7.12761 16.0077C6.80673 14.7229 6.40083 13.5619 5.89698 12.5532ZM18.1054 12.5532C18.3522 12.0591 18.9528 11.8586 19.4469 12.1054C19.941 12.3522 20.1415 12.9528 19.8947 13.4469C19.462 14.3131 19.1031 15.3397 18.8152 16.4923C18.4609 17.9109 18.2316 19.4414 18.1041 20.9736C18.0593 21.5109 18.0306 22.0094 18.0147 22.4556L18.0098 22.6048L18.0021 23C18.0021 23.5523 17.5544 24 17.0021 24C16.4499 24 16.0021 23.5523 16.0021 23L16.004 22.816L16.016 22.3843C16.033 21.9076 16.0635 21.3778 16.111 20.8077C16.2468 19.1758 16.4916 17.5423 16.8748 16.0077C17.1957 14.7229 17.6016 13.5619 18.1054 12.5532ZM10.0003 6.00003C10.5526 6.00003 11.0003 6.44774 11.0003 7.00003L10.9986 7.12201L10.9837 7.41649C10.9643 7.68877 10.9264 8.0263 10.8617 8.41443C10.6901 9.444 10.3807 10.4752 9.8947 11.4472C9.64771 11.9412 9.04704 12.1414 8.55306 11.8945C8.05908 11.6475 7.85886 11.0468 8.10585 10.5528C8.49485 9.77481 8.74797 8.93106 8.88888 8.08563C8.90988 7.95963 8.92734 7.84116 8.94172 7.73123L8.97608 7.42811L8.99468 7.18235L9.00027 7.00003C9.00027 6.44774 9.44799 6.00003 10.0003 6.00003ZM13.0001 7.00003C13.0001 6.44774 13.4478 6.00003 14.0001 6.00003C14.5523 6.00003 15.0001 6.44774 15.0001 7.00003L15.0056 7.18235L15.0242 7.42811L15.0586 7.73123C15.073 7.84116 15.0904 7.95963 15.1114 8.08563C15.2524 8.93106 15.5055 9.77481 15.8945 10.5528C16.1415 11.0468 15.9412 11.6475 15.4473 11.8945C14.9533 12.1414 14.3526 11.9412 14.1056 11.4472C13.6196 10.4752 13.3103 9.444 13.1387 8.41443C13.074 8.0263 13.036 7.68877 13.0166 7.41649L13.0018 7.12201L13.0001 7.00003Z" fill="black"/>
</svg>
