<svg width="24" height="24" viewBox="0 0 24 24" fill="none" xmlns="http://www.w3.org/2000/svg">
<path fill-rule="evenodd" clip-rule="evenodd" d="M3 2C1.35499 2 0 3.35499 0 5C0 6.64501 1.35499 8 3 8C4.64501 8 6 6.64501 6 5C6 3.35499 4.64501 2 3 2ZM3 4C3.56413 4 4 4.43587 4 5C4 5.56413 3.56413 6 3 6C2.43587 6 2 5.56413 2 5C2 4.43587 2.43587 4 3 4ZM15.0003 6.75088C14.8384 6.222 14.2781 5.92474 13.7494 6.08718L4.12891 9.04297C2.08451 9.66454 1.33553 12.2708 2.73828 13.8828L7.70703 20H1C0.447715 20 0 20.4477 0 21V21C0 21.5523 0.447715 22 1 22H23C23.5523 22 24 21.5523 24 21V21C24 20.4477 23.5523 20 23 20H13.8828L17.6562 15.7695L22.9465 12.3831C23.4119 12.0852 23.548 11.4664 23.2504 11.0007V11.0007C22.9526 10.5344 22.3329 10.3982 21.8669 10.6964L16.4609 14.1562C16.384 14.2064 16.3143 14.2668 16.2539 14.3359L11.5508 19.6133C11.5428 19.6223 11.535 19.6314 11.5273 19.6406C11.3326 19.8739 11.0694 19.9878 10.8047 20H10.7344C10.4695 19.9923 10.2071 19.8837 10.0078 19.6562L4.26953 12.5938C4.26185 12.5858 4.25404 12.578 4.24609 12.5703C3.74484 11.9943 3.97933 11.1795 4.71094 10.957L6.10547 10.5312L10.207 15.6094C10.2096 15.6133 10.2122 15.6172 10.2148 15.6211L10.2227 15.6289C10.4125 15.8636 10.6982 16 11 16C11.5523 16 12 15.5523 12 15C12 14.7711 11.9214 14.5491 11.7773 14.3711L11.7695 14.3633L8.16797 9.89453L14.3371 8.00051C14.8651 7.83839 15.162 7.27907 15.0003 6.75088V6.75088Z" fill="black"/>
</svg>
