<svg width="24" height="24" viewBox="0 0 24 24" fill="none" xmlns="http://www.w3.org/2000/svg">
<path fill-rule="evenodd" clip-rule="evenodd" d="M12 0C10.3555 0 9 1.35547 9 3C9 4.64453 10.3555 6 12 6C13.6445 6 15 4.64453 15 3C15 1.35547 13.6445 0 12 0ZM12 2C12.5625 2 13 2.4375 13 3C13 3.5625 12.5625 4 12 4C11.4375 4 11 3.5625 11 3C11 2.4375 11.4375 2 12 2ZM3 7C2.44772 7 2 7.44772 2 8V8C2 8.55228 2.44772 9 3 9H9V23C9 23.5523 9.44772 24 10 24V24C10.5523 24 11 23.5523 11 23V16.7188L14 15.7188L15.5312 16.9688L12.6754 17.9544C12.2712 18.0939 12 18.4744 12 18.902V18.902C12 19.5919 12.6806 20.0756 13.3321 19.8488L16.9375 18.5938C17.4688 18.4102 17.8711 17.9609 17.9688 17.4062C18.0664 16.8516 17.8438 16.293 17.4062 15.9375L15 14V9H21C21.5523 9 22 8.55228 22 8V8C22 7.44772 21.5523 7 21 7H3ZM11 9H13V13.9375L11 14.625V9Z" fill="black"/>
</svg>
