<svg width="24" height="24" viewBox="0 0 24 24" fill="none" xmlns="http://www.w3.org/2000/svg">
<path fill-rule="evenodd" clip-rule="evenodd" d="M17 2C19.6888 2 21.8818 4.12231 21.9954 6.78311L22 7V10H23C23.5523 10 24 10.4477 24 11C24 11.5128 23.614 11.9355 23.1166 11.9933L23 12H22V15C22 15.5523 21.5523 16 21 16C20.4872 16 20.0645 15.614 20.0067 15.1166L20 15V11V7C20 5.40232 18.7511 4.09634 17.1763 4.00509L17 4H7C5.40232 4 4.09634 5.24892 4.00509 6.82373L4 7V11V15C4 15.5523 3.55228 16 3 16C2.48716 16 2.06449 15.614 2.00673 15.1166L2 15V12H1C0.447715 12 0 11.5523 0 11C0 10.4872 0.38604 10.0645 0.883379 10.0067L1 10H2V7C2 4.31125 4.12231 2.11818 6.78311 2.00462L7 2H17ZM17 20C17.5523 20 18 20.4477 18 21C18 21.5128 17.614 21.9355 17.1166 21.9933L17 22H7C6.44772 22 6 21.5523 6 21C6 20.4872 6.38604 20.0645 6.88338 20.0067L7 20H17ZM15.9949 10.8237C15.9037 9.24892 14.5977 8 13 8H11L10.8237 8.00509C9.24892 8.09634 8 9.40232 8 11V15L8.00673 15.1166C8.06449 15.614 8.48716 16 9 16C9.55229 16 10 15.5523 10 15V11L10.0067 10.8834C10.0645 10.386 10.4872 10 11 10H13L13.1166 10.0067C13.614 10.0645 14 10.4872 14 11V15L14.0067 15.1166C14.0645 15.614 14.4872 16 15 16C15.5523 16 16 15.5523 16 15V11L15.9949 10.8237Z" fill="black"/>
</svg>
